<mxfile host="app.diagrams.net" agent="Mozilla/5.0 (Windows NT 10.0; Win64; x64; rv:142.0) Gecko/20100101 Firefox/142.0" version="28.2.3">
  <diagram name="PÃ¡gina-1" id="Y_Qp7COOdfpW_63T_PMp">
    <mxGraphModel dx="5747" dy="2553" grid="0" gridSize="10" guides="1" tooltips="1" connect="1" arrows="1" fold="1" page="0" pageScale="1" pageWidth="827" pageHeight="1169" background="light-dark(#FFFFFF,#000000)" math="0" shadow="0">
      <root>
        <mxCell id="0" />
        <mxCell id="1" parent="0" />
        <mxCell id="usdk7RZo3pvC-N4byeOp-1" value="" style="group" parent="1" vertex="1" connectable="0">
          <mxGeometry x="2939" y="1542" width="340" height="250" as="geometry" />
        </mxCell>
        <mxCell id="usdk7RZo3pvC-N4byeOp-2" value="cliente" style="swimlane;fontStyle=0;childLayout=stackLayout;horizontal=1;startSize=30;horizontalStack=0;resizeParent=1;resizeParentMax=0;resizeLast=0;collapsible=1;marginBottom=0;whiteSpace=wrap;html=1;" parent="usdk7RZo3pvC-N4byeOp-1" vertex="1">
          <mxGeometry width="330" height="60" as="geometry" />
        </mxCell>
        <mxCell id="usdk7RZo3pvC-N4byeOp-3" value="" style="shape=internalStorage;whiteSpace=wrap;html=1;backgroundOutline=1;dx=30;dy=30;" parent="usdk7RZo3pvC-N4byeOp-1" vertex="1">
          <mxGeometry y="30" width="330" height="220" as="geometry" />
        </mxCell>
        <mxCell id="usdk7RZo3pvC-N4byeOp-4" value="client_id bigserial" style="text;strokeColor=none;fillColor=none;align=left;verticalAlign=middle;spacingLeft=4;spacingRight=4;overflow=hidden;points=[[0,0.5],[1,0.5]];portConstraint=eastwest;rotatable=0;whiteSpace=wrap;html=1;" parent="usdk7RZo3pvC-N4byeOp-1" vertex="1">
          <mxGeometry x="30" y="30" width="140" height="30" as="geometry" />
        </mxCell>
        <mxCell id="usdk7RZo3pvC-N4byeOp-5" value="PK" style="text;strokeColor=none;fillColor=none;align=left;verticalAlign=middle;spacingLeft=4;spacingRight=4;overflow=hidden;points=[[0,0.5],[1,0.5]];portConstraint=eastwest;rotatable=0;whiteSpace=wrap;html=1;" parent="usdk7RZo3pvC-N4byeOp-1" vertex="1">
          <mxGeometry y="30" width="30" height="30" as="geometry" />
        </mxCell>
        <mxCell id="usdk7RZo3pvC-N4byeOp-6" value="nome varchar(255) not null" style="text;strokeColor=none;fillColor=none;align=left;verticalAlign=middle;spacingLeft=4;spacingRight=4;overflow=hidden;points=[[0,0.5],[1,0.5]];portConstraint=eastwest;rotatable=0;whiteSpace=wrap;html=1;" parent="usdk7RZo3pvC-N4byeOp-1" vertex="1">
          <mxGeometry x="30" y="60" width="160" height="30" as="geometry" />
        </mxCell>
        <mxCell id="usdk7RZo3pvC-N4byeOp-7" value="cpf char(14) unique not null" style="text;strokeColor=none;fillColor=none;align=left;verticalAlign=middle;spacingLeft=4;spacingRight=4;overflow=hidden;points=[[0,0.5],[1,0.5]];portConstraint=eastwest;rotatable=0;whiteSpace=wrap;html=1;" parent="usdk7RZo3pvC-N4byeOp-1" vertex="1">
          <mxGeometry x="30" y="90" width="160" height="30" as="geometry" />
        </mxCell>
        <mxCell id="usdk7RZo3pvC-N4byeOp-8" value="email varchar(255) unique not null" style="text;strokeColor=none;fillColor=none;align=left;verticalAlign=middle;spacingLeft=4;spacingRight=4;overflow=hidden;points=[[0,0.5],[1,0.5]];portConstraint=eastwest;rotatable=0;whiteSpace=wrap;html=1;" parent="usdk7RZo3pvC-N4byeOp-1" vertex="1">
          <mxGeometry x="30" y="120" width="210" height="30" as="geometry" />
        </mxCell>
        <mxCell id="usdk7RZo3pvC-N4byeOp-9" value="telefone varchar(11)" style="text;strokeColor=none;fillColor=none;align=left;verticalAlign=middle;spacingLeft=4;spacingRight=4;overflow=hidden;points=[[0,0.5],[1,0.5]];portConstraint=eastwest;rotatable=0;whiteSpace=wrap;html=1;" parent="usdk7RZo3pvC-N4byeOp-1" vertex="1">
          <mxGeometry x="30" y="150" width="210" height="30" as="geometry" />
        </mxCell>
        <mxCell id="usdk7RZo3pvC-N4byeOp-10" value="constraint cpf_check (char_length(cpf) = 14)" style="text;strokeColor=none;fillColor=none;align=left;verticalAlign=middle;spacingLeft=4;spacingRight=4;overflow=hidden;points=[[0,0.5],[1,0.5]];portConstraint=eastwest;rotatable=0;whiteSpace=wrap;html=1;" parent="usdk7RZo3pvC-N4byeOp-1" vertex="1">
          <mxGeometry x="30" y="180" width="290" height="30" as="geometry" />
        </mxCell>
        <mxCell id="usdk7RZo3pvC-N4byeOp-11" value="constraint telefone_check (char_length(telefone) = 11)" style="text;strokeColor=none;fillColor=none;align=left;verticalAlign=middle;spacingLeft=4;spacingRight=4;overflow=hidden;points=[[0,0.5],[1,0.5]];portConstraint=eastwest;rotatable=0;whiteSpace=wrap;html=1;" parent="usdk7RZo3pvC-N4byeOp-1" vertex="1">
          <mxGeometry x="30" y="210" width="310" height="30" as="geometry" />
        </mxCell>
        <mxCell id="usdk7RZo3pvC-N4byeOp-12" value="" style="group" parent="1" vertex="1" connectable="0">
          <mxGeometry x="2584.58" y="1988" width="340" height="220" as="geometry" />
        </mxCell>
        <mxCell id="usdk7RZo3pvC-N4byeOp-13" value="hospedagem" style="swimlane;fontStyle=0;childLayout=stackLayout;horizontal=1;startSize=30;horizontalStack=0;resizeParent=1;resizeParentMax=0;resizeLast=0;collapsible=1;marginBottom=0;whiteSpace=wrap;html=1;" parent="usdk7RZo3pvC-N4byeOp-12" vertex="1">
          <mxGeometry width="330" height="52.8" as="geometry" />
        </mxCell>
        <mxCell id="usdk7RZo3pvC-N4byeOp-14" value="" style="shape=internalStorage;whiteSpace=wrap;html=1;backgroundOutline=1;dx=30;dy=30;" parent="usdk7RZo3pvC-N4byeOp-12" vertex="1">
          <mxGeometry y="26.4" width="330" height="193.6" as="geometry" />
        </mxCell>
        <mxCell id="usdk7RZo3pvC-N4byeOp-15" value="hospedagem_id bigserial" style="text;strokeColor=none;fillColor=none;align=left;verticalAlign=middle;spacingLeft=4;spacingRight=4;overflow=hidden;points=[[0,0.5],[1,0.5]];portConstraint=eastwest;rotatable=0;whiteSpace=wrap;html=1;" parent="usdk7RZo3pvC-N4byeOp-12" vertex="1">
          <mxGeometry x="30" y="26.4" width="160" height="26.4" as="geometry" />
        </mxCell>
        <mxCell id="usdk7RZo3pvC-N4byeOp-16" value="PK" style="text;strokeColor=none;fillColor=none;align=left;verticalAlign=middle;spacingLeft=4;spacingRight=4;overflow=hidden;points=[[0,0.5],[1,0.5]];portConstraint=eastwest;rotatable=0;whiteSpace=wrap;html=1;" parent="usdk7RZo3pvC-N4byeOp-12" vertex="1">
          <mxGeometry y="26.4" width="30" height="26.4" as="geometry" />
        </mxCell>
        <mxCell id="usdk7RZo3pvC-N4byeOp-17" value="check_in timestamp not null" style="text;strokeColor=none;fillColor=none;align=left;verticalAlign=middle;spacingLeft=4;spacingRight=4;overflow=hidden;points=[[0,0.5],[1,0.5]];portConstraint=eastwest;rotatable=0;whiteSpace=wrap;html=1;" parent="usdk7RZo3pvC-N4byeOp-12" vertex="1">
          <mxGeometry x="30" y="105.6" width="160" height="26.4" as="geometry" />
        </mxCell>
        <mxCell id="usdk7RZo3pvC-N4byeOp-18" value="check_out timestamp not null" style="text;strokeColor=none;fillColor=none;align=left;verticalAlign=middle;spacingLeft=4;spacingRight=4;overflow=hidden;points=[[0,0.5],[1,0.5]];portConstraint=eastwest;rotatable=0;whiteSpace=wrap;html=1;" parent="usdk7RZo3pvC-N4byeOp-12" vertex="1">
          <mxGeometry x="30" y="132" width="210" height="26.4" as="geometry" />
        </mxCell>
        <mxCell id="usdk7RZo3pvC-N4byeOp-19" value="numero_quarto integer not null" style="text;strokeColor=none;fillColor=none;align=left;verticalAlign=middle;spacingLeft=4;spacingRight=4;overflow=hidden;points=[[0,0.5],[1,0.5]];portConstraint=eastwest;rotatable=0;whiteSpace=wrap;html=1;" parent="usdk7RZo3pvC-N4byeOp-12" vertex="1">
          <mxGeometry x="30" y="158.4" width="210" height="26.4" as="geometry" />
        </mxCell>
        <mxCell id="usdk7RZo3pvC-N4byeOp-20" value="cliente_id integer not null references cliente(cliente_id)" style="text;strokeColor=none;fillColor=none;align=left;verticalAlign=middle;spacingLeft=4;spacingRight=4;overflow=hidden;points=[[0,0.5],[1,0.5]];portConstraint=eastwest;rotatable=0;whiteSpace=wrap;html=1;" parent="usdk7RZo3pvC-N4byeOp-12" vertex="1">
          <mxGeometry x="30" y="52.8" width="310" height="26.4" as="geometry" />
        </mxCell>
        <mxCell id="usdk7RZo3pvC-N4byeOp-21" value="FK" style="text;strokeColor=none;fillColor=none;align=left;verticalAlign=middle;spacingLeft=4;spacingRight=4;overflow=hidden;points=[[0,0.5],[1,0.5]];portConstraint=eastwest;rotatable=0;whiteSpace=wrap;html=1;" parent="usdk7RZo3pvC-N4byeOp-12" vertex="1">
          <mxGeometry y="52.8" width="30" height="26.4" as="geometry" />
        </mxCell>
        <mxCell id="usdk7RZo3pvC-N4byeOp-22" value="hotel_id integer not null references hotel(hotel_id)" style="text;strokeColor=none;fillColor=none;align=left;verticalAlign=middle;spacingLeft=4;spacingRight=4;overflow=hidden;points=[[0,0.5],[1,0.5]];portConstraint=eastwest;rotatable=0;whiteSpace=wrap;html=1;" parent="usdk7RZo3pvC-N4byeOp-12" vertex="1">
          <mxGeometry x="30" y="79.2" width="310" height="26.4" as="geometry" />
        </mxCell>
        <mxCell id="usdk7RZo3pvC-N4byeOp-23" value="FK" style="text;strokeColor=none;fillColor=none;align=left;verticalAlign=middle;spacingLeft=4;spacingRight=4;overflow=hidden;points=[[0,0.5],[1,0.5]];portConstraint=eastwest;rotatable=0;whiteSpace=wrap;html=1;" parent="usdk7RZo3pvC-N4byeOp-12" vertex="1">
          <mxGeometry y="79.2" width="30" height="26.4" as="geometry" />
        </mxCell>
        <mxCell id="usdk7RZo3pvC-N4byeOp-24" value="" style="group" parent="1" vertex="1" connectable="0">
          <mxGeometry x="3585" y="2037" width="340" height="220" as="geometry" />
        </mxCell>
        <mxCell id="usdk7RZo3pvC-N4byeOp-25" value="passagem" style="swimlane;fontStyle=0;childLayout=stackLayout;horizontal=1;startSize=30;horizontalStack=0;resizeParent=1;resizeParentMax=0;resizeLast=0;collapsible=1;marginBottom=0;whiteSpace=wrap;html=1;" parent="usdk7RZo3pvC-N4byeOp-24" vertex="1">
          <mxGeometry width="330" height="52.8" as="geometry" />
        </mxCell>
        <mxCell id="usdk7RZo3pvC-N4byeOp-26" value="" style="shape=internalStorage;whiteSpace=wrap;html=1;backgroundOutline=1;dx=30;dy=30;" parent="usdk7RZo3pvC-N4byeOp-24" vertex="1">
          <mxGeometry y="26.4" width="330" height="193.6" as="geometry" />
        </mxCell>
        <mxCell id="usdk7RZo3pvC-N4byeOp-27" value="passagem_id bigserial" style="text;strokeColor=none;fillColor=none;align=left;verticalAlign=middle;spacingLeft=4;spacingRight=4;overflow=hidden;points=[[0,0.5],[1,0.5]];portConstraint=eastwest;rotatable=0;whiteSpace=wrap;html=1;" parent="usdk7RZo3pvC-N4byeOp-24" vertex="1">
          <mxGeometry x="30" y="26.4" width="160" height="26.4" as="geometry" />
        </mxCell>
        <mxCell id="usdk7RZo3pvC-N4byeOp-28" value="PK" style="text;strokeColor=none;fillColor=none;align=left;verticalAlign=middle;spacingLeft=4;spacingRight=4;overflow=hidden;points=[[0,0.5],[1,0.5]];portConstraint=eastwest;rotatable=0;whiteSpace=wrap;html=1;" parent="usdk7RZo3pvC-N4byeOp-24" vertex="1">
          <mxGeometry y="26.4" width="30" height="26.4" as="geometry" />
        </mxCell>
        <mxCell id="usdk7RZo3pvC-N4byeOp-29" value="data_embarque timestamp not null" style="text;strokeColor=none;fillColor=none;align=left;verticalAlign=middle;spacingLeft=4;spacingRight=4;overflow=hidden;points=[[0,0.5],[1,0.5]];portConstraint=eastwest;rotatable=0;whiteSpace=wrap;html=1;" parent="usdk7RZo3pvC-N4byeOp-24" vertex="1">
          <mxGeometry x="30" y="130" width="250" height="26.4" as="geometry" />
        </mxCell>
        <mxCell id="usdk7RZo3pvC-N4byeOp-30" value="data_desembarque timestamp not null" style="text;strokeColor=none;fillColor=none;align=left;verticalAlign=middle;spacingLeft=4;spacingRight=4;overflow=hidden;points=[[0,0.5],[1,0.5]];portConstraint=eastwest;rotatable=0;whiteSpace=wrap;html=1;" parent="usdk7RZo3pvC-N4byeOp-24" vertex="1">
          <mxGeometry x="30" y="156.4" width="260" height="26.4" as="geometry" />
        </mxCell>
        <mxCell id="usdk7RZo3pvC-N4byeOp-31" value="companhia varchar(100)" style="text;strokeColor=none;fillColor=none;align=left;verticalAlign=middle;spacingLeft=4;spacingRight=4;overflow=hidden;points=[[0,0.5],[1,0.5]];portConstraint=eastwest;rotatable=0;whiteSpace=wrap;html=1;" parent="usdk7RZo3pvC-N4byeOp-24" vertex="1">
          <mxGeometry x="30" y="182.8" width="210" height="26.4" as="geometry" />
        </mxCell>
        <mxCell id="usdk7RZo3pvC-N4byeOp-32" value="cliente_id integer not null references cliente(cliente_id)" style="text;strokeColor=none;fillColor=none;align=left;verticalAlign=middle;spacingLeft=4;spacingRight=4;overflow=hidden;points=[[0,0.5],[1,0.5]];portConstraint=eastwest;rotatable=0;whiteSpace=wrap;html=1;" parent="usdk7RZo3pvC-N4byeOp-24" vertex="1">
          <mxGeometry x="30" y="52.8" width="310" height="26.4" as="geometry" />
        </mxCell>
        <mxCell id="usdk7RZo3pvC-N4byeOp-33" value="FK" style="text;strokeColor=none;fillColor=none;align=left;verticalAlign=middle;spacingLeft=4;spacingRight=4;overflow=hidden;points=[[0,0.5],[1,0.5]];portConstraint=eastwest;rotatable=0;whiteSpace=wrap;html=1;" parent="usdk7RZo3pvC-N4byeOp-24" vertex="1">
          <mxGeometry y="52.8" width="30" height="26.4" as="geometry" />
        </mxCell>
        <mxCell id="usdk7RZo3pvC-N4byeOp-34" value="origem_id integer not null references cidade(cidade_id)" style="text;strokeColor=none;fillColor=none;align=left;verticalAlign=middle;spacingLeft=4;spacingRight=4;overflow=hidden;points=[[0,0.5],[1,0.5]];portConstraint=eastwest;rotatable=0;whiteSpace=wrap;html=1;" parent="usdk7RZo3pvC-N4byeOp-24" vertex="1">
          <mxGeometry x="30" y="79.2" width="310" height="26.4" as="geometry" />
        </mxCell>
        <mxCell id="usdk7RZo3pvC-N4byeOp-35" value="FK" style="text;strokeColor=none;fillColor=none;align=left;verticalAlign=middle;spacingLeft=4;spacingRight=4;overflow=hidden;points=[[0,0.5],[1,0.5]];portConstraint=eastwest;rotatable=0;whiteSpace=wrap;html=1;" parent="usdk7RZo3pvC-N4byeOp-24" vertex="1">
          <mxGeometry y="79.2" width="30" height="26.4" as="geometry" />
        </mxCell>
        <mxCell id="usdk7RZo3pvC-N4byeOp-36" value="destino_id integer not null references cidade(cidade_id)" style="text;strokeColor=none;fillColor=none;align=left;verticalAlign=middle;spacingLeft=4;spacingRight=4;overflow=hidden;points=[[0,0.5],[1,0.5]];portConstraint=eastwest;rotatable=0;whiteSpace=wrap;html=1;" parent="usdk7RZo3pvC-N4byeOp-24" vertex="1">
          <mxGeometry x="30" y="105.6" width="310" height="26.4" as="geometry" />
        </mxCell>
        <mxCell id="usdk7RZo3pvC-N4byeOp-37" value="FK" style="text;strokeColor=none;fillColor=none;align=left;verticalAlign=middle;spacingLeft=4;spacingRight=4;overflow=hidden;points=[[0,0.5],[1,0.5]];portConstraint=eastwest;rotatable=0;whiteSpace=wrap;html=1;" parent="usdk7RZo3pvC-N4byeOp-24" vertex="1">
          <mxGeometry y="103.60000000000001" width="30" height="26.4" as="geometry" />
        </mxCell>
        <mxCell id="usdk7RZo3pvC-N4byeOp-38" value="" style="group" parent="1" vertex="1" connectable="0">
          <mxGeometry x="3106" y="2045" width="340" height="150" as="geometry" />
        </mxCell>
        <mxCell id="usdk7RZo3pvC-N4byeOp-39" value="pacote" style="swimlane;fontStyle=0;childLayout=stackLayout;horizontal=1;startSize=30;horizontalStack=0;resizeParent=1;resizeParentMax=0;resizeLast=0;collapsible=1;marginBottom=0;whiteSpace=wrap;html=1;" parent="usdk7RZo3pvC-N4byeOp-38" vertex="1">
          <mxGeometry y="-10" width="330" height="36" as="geometry">
            <mxRectangle width="80" height="30" as="alternateBounds" />
          </mxGeometry>
        </mxCell>
        <mxCell id="usdk7RZo3pvC-N4byeOp-40" value="" style="shape=internalStorage;whiteSpace=wrap;html=1;backgroundOutline=1;dx=30;dy=22;" parent="usdk7RZo3pvC-N4byeOp-38" vertex="1">
          <mxGeometry y="18" width="330" height="132" as="geometry" />
        </mxCell>
        <mxCell id="usdk7RZo3pvC-N4byeOp-41" value="pacote_id bigserial" style="text;strokeColor=none;fillColor=none;align=left;verticalAlign=middle;spacingLeft=4;spacingRight=4;overflow=hidden;points=[[0,0.5],[1,0.5]];portConstraint=eastwest;rotatable=0;whiteSpace=wrap;html=1;" parent="usdk7RZo3pvC-N4byeOp-38" vertex="1">
          <mxGeometry x="30" y="18" width="140" height="18" as="geometry" />
        </mxCell>
        <mxCell id="usdk7RZo3pvC-N4byeOp-42" value="PK" style="text;strokeColor=none;fillColor=none;align=left;verticalAlign=middle;spacingLeft=4;spacingRight=4;overflow=hidden;points=[[0,0.5],[1,0.5]];portConstraint=eastwest;rotatable=0;whiteSpace=wrap;html=1;" parent="usdk7RZo3pvC-N4byeOp-38" vertex="1">
          <mxGeometry y="18" width="30" height="18" as="geometry" />
        </mxCell>
        <mxCell id="usdk7RZo3pvC-N4byeOp-43" value="data_inicio date not null" style="text;strokeColor=none;fillColor=none;align=left;verticalAlign=middle;spacingLeft=4;spacingRight=4;overflow=hidden;points=[[0,0.5],[1,0.5]];portConstraint=eastwest;rotatable=0;whiteSpace=wrap;html=1;" parent="usdk7RZo3pvC-N4byeOp-38" vertex="1">
          <mxGeometry x="30" y="48" width="160" height="18" as="geometry" />
        </mxCell>
        <mxCell id="usdk7RZo3pvC-N4byeOp-44" value="data_fim date not null" style="text;strokeColor=none;fillColor=none;align=left;verticalAlign=middle;spacingLeft=4;spacingRight=4;overflow=hidden;points=[[0,0.5],[1,0.5]];portConstraint=eastwest;rotatable=0;whiteSpace=wrap;html=1;" parent="usdk7RZo3pvC-N4byeOp-38" vertex="1">
          <mxGeometry x="30" y="66" width="160" height="18" as="geometry" />
        </mxCell>
        <mxCell id="usdk7RZo3pvC-N4byeOp-45" value="preco decimal not null" style="text;strokeColor=none;fillColor=none;align=left;verticalAlign=middle;spacingLeft=4;spacingRight=4;overflow=hidden;points=[[0,0.5],[1,0.5]];portConstraint=eastwest;rotatable=0;whiteSpace=wrap;html=1;" parent="usdk7RZo3pvC-N4byeOp-38" vertex="1">
          <mxGeometry x="30" y="84" width="210" height="18" as="geometry" />
        </mxCell>
        <mxCell id="usdk7RZo3pvC-N4byeOp-46" value="" style="group" parent="1" vertex="1" connectable="0">
          <mxGeometry x="3062" y="2455" width="370" height="150" as="geometry" />
        </mxCell>
        <mxCell id="usdk7RZo3pvC-N4byeOp-47" value="pacote_cliente" style="swimlane;fontStyle=0;childLayout=stackLayout;horizontal=1;startSize=30;horizontalStack=0;resizeParent=1;resizeParentMax=0;resizeLast=0;collapsible=1;marginBottom=0;whiteSpace=wrap;html=1;" parent="usdk7RZo3pvC-N4byeOp-46" vertex="1">
          <mxGeometry y="-10" width="330" height="36" as="geometry">
            <mxRectangle width="80" height="30" as="alternateBounds" />
          </mxGeometry>
        </mxCell>
        <mxCell id="usdk7RZo3pvC-N4byeOp-48" value="" style="shape=internalStorage;whiteSpace=wrap;html=1;backgroundOutline=1;dx=30;dy=22;" parent="usdk7RZo3pvC-N4byeOp-46" vertex="1">
          <mxGeometry y="18" width="330" height="132" as="geometry" />
        </mxCell>
        <mxCell id="usdk7RZo3pvC-N4byeOp-49" value="pacote_id integer not null references pacote(pacote_id)" style="text;strokeColor=none;fillColor=none;align=left;verticalAlign=middle;spacingLeft=4;spacingRight=4;overflow=hidden;points=[[0,0.5],[1,0.5]];portConstraint=eastwest;rotatable=0;whiteSpace=wrap;html=1;" parent="usdk7RZo3pvC-N4byeOp-46" vertex="1">
          <mxGeometry x="30" y="18" width="340" height="18" as="geometry" />
        </mxCell>
        <mxCell id="usdk7RZo3pvC-N4byeOp-50" value="FK" style="text;strokeColor=none;fillColor=none;align=left;verticalAlign=middle;spacingLeft=4;spacingRight=4;overflow=hidden;points=[[0,0.5],[1,0.5]];portConstraint=eastwest;rotatable=0;whiteSpace=wrap;html=1;" parent="usdk7RZo3pvC-N4byeOp-46" vertex="1">
          <mxGeometry y="18" width="30" height="18" as="geometry" />
        </mxCell>
        <mxCell id="usdk7RZo3pvC-N4byeOp-51" value="primary key (pacote_id, hospedagem_id)" style="text;strokeColor=none;fillColor=none;align=left;verticalAlign=middle;spacingLeft=4;spacingRight=4;overflow=hidden;points=[[0,0.5],[1,0.5]];portConstraint=eastwest;rotatable=0;whiteSpace=wrap;html=1;" parent="usdk7RZo3pvC-N4byeOp-46" vertex="1">
          <mxGeometry x="30" y="75" width="290" height="18" as="geometry" />
        </mxCell>
        <mxCell id="usdk7RZo3pvC-N4byeOp-52" value="cliente_id integer not null references cliente(cliente_id)" style="text;strokeColor=none;fillColor=none;align=left;verticalAlign=middle;spacingLeft=4;spacingRight=4;overflow=hidden;points=[[0,0.5],[1,0.5]];portConstraint=eastwest;rotatable=0;whiteSpace=wrap;html=1;" parent="usdk7RZo3pvC-N4byeOp-46" vertex="1">
          <mxGeometry x="30" y="48" width="340" height="18" as="geometry" />
        </mxCell>
        <mxCell id="usdk7RZo3pvC-N4byeOp-53" value="FK" style="text;strokeColor=none;fillColor=none;align=left;verticalAlign=middle;spacingLeft=4;spacingRight=4;overflow=hidden;points=[[0,0.5],[1,0.5]];portConstraint=eastwest;rotatable=0;whiteSpace=wrap;html=1;" parent="usdk7RZo3pvC-N4byeOp-46" vertex="1">
          <mxGeometry y="48" width="30" height="18" as="geometry" />
        </mxCell>
        <mxCell id="usdk7RZo3pvC-N4byeOp-54" value="" style="group" parent="1" vertex="1" connectable="0">
          <mxGeometry x="2434" y="2445" width="520" height="150" as="geometry" />
        </mxCell>
        <mxCell id="usdk7RZo3pvC-N4byeOp-55" value="pacote_hospedagem" style="swimlane;fontStyle=0;childLayout=stackLayout;horizontal=1;startSize=30;horizontalStack=0;resizeParent=1;resizeParentMax=0;resizeLast=0;collapsible=1;marginBottom=0;whiteSpace=wrap;html=1;" parent="usdk7RZo3pvC-N4byeOp-54" vertex="1">
          <mxGeometry y="-10" width="440" height="36" as="geometry">
            <mxRectangle width="80" height="30" as="alternateBounds" />
          </mxGeometry>
        </mxCell>
        <mxCell id="usdk7RZo3pvC-N4byeOp-56" value="" style="shape=internalStorage;whiteSpace=wrap;html=1;backgroundOutline=1;dx=30;dy=22;" parent="usdk7RZo3pvC-N4byeOp-54" vertex="1">
          <mxGeometry y="18" width="440" height="132" as="geometry" />
        </mxCell>
        <mxCell id="usdk7RZo3pvC-N4byeOp-57" value="pacote_id integer not null references pacote(pacote_id)" style="text;strokeColor=none;fillColor=none;align=left;verticalAlign=middle;spacingLeft=4;spacingRight=4;overflow=hidden;points=[[0,0.5],[1,0.5]];portConstraint=eastwest;rotatable=0;whiteSpace=wrap;html=1;" parent="usdk7RZo3pvC-N4byeOp-54" vertex="1">
          <mxGeometry x="30" y="18" width="340" height="18" as="geometry" />
        </mxCell>
        <mxCell id="usdk7RZo3pvC-N4byeOp-58" value="FK" style="text;strokeColor=none;fillColor=none;align=left;verticalAlign=middle;spacingLeft=4;spacingRight=4;overflow=hidden;points=[[0,0.5],[1,0.5]];portConstraint=eastwest;rotatable=0;whiteSpace=wrap;html=1;" parent="usdk7RZo3pvC-N4byeOp-54" vertex="1">
          <mxGeometry y="18" width="30" height="18" as="geometry" />
        </mxCell>
        <mxCell id="usdk7RZo3pvC-N4byeOp-59" value="primary key(pacote_id, hospedagem_id)" style="text;strokeColor=none;fillColor=none;align=left;verticalAlign=middle;spacingLeft=4;spacingRight=4;overflow=hidden;points=[[0,0.5],[1,0.5]];portConstraint=eastwest;rotatable=0;whiteSpace=wrap;html=1;" parent="usdk7RZo3pvC-N4byeOp-54" vertex="1">
          <mxGeometry x="30" y="75" width="290" height="18" as="geometry" />
        </mxCell>
        <mxCell id="usdk7RZo3pvC-N4byeOp-60" value="hospedagem_id integer not null references hospedagem(hospedagem_id)" style="text;strokeColor=none;fillColor=none;align=left;verticalAlign=middle;spacingLeft=4;spacingRight=4;overflow=hidden;points=[[0,0.5],[1,0.5]];portConstraint=eastwest;rotatable=0;whiteSpace=wrap;html=1;" parent="usdk7RZo3pvC-N4byeOp-54" vertex="1">
          <mxGeometry x="30" y="48" width="410" height="18" as="geometry" />
        </mxCell>
        <mxCell id="usdk7RZo3pvC-N4byeOp-61" value="FK" style="text;strokeColor=none;fillColor=none;align=left;verticalAlign=middle;spacingLeft=4;spacingRight=4;overflow=hidden;points=[[0,0.5],[1,0.5]];portConstraint=eastwest;rotatable=0;whiteSpace=wrap;html=1;" parent="usdk7RZo3pvC-N4byeOp-54" vertex="1">
          <mxGeometry y="48" width="30" height="18" as="geometry" />
        </mxCell>
        <mxCell id="usdk7RZo3pvC-N4byeOp-62" value="" style="group" parent="1" vertex="1" connectable="0">
          <mxGeometry x="3516" y="2614" width="520" height="494" as="geometry" />
        </mxCell>
        <mxCell id="usdk7RZo3pvC-N4byeOp-63" value="pacote_passagem" style="swimlane;fontStyle=0;childLayout=stackLayout;horizontal=1;startSize=30;horizontalStack=0;resizeParent=1;resizeParentMax=0;resizeLast=0;collapsible=1;marginBottom=0;whiteSpace=wrap;html=1;" parent="usdk7RZo3pvC-N4byeOp-62" vertex="1">
          <mxGeometry x="78" y="-145" width="440" height="36" as="geometry">
            <mxRectangle width="80" height="30" as="alternateBounds" />
          </mxGeometry>
        </mxCell>
        <mxCell id="usdk7RZo3pvC-N4byeOp-64" value="" style="shape=internalStorage;whiteSpace=wrap;html=1;backgroundOutline=1;dx=30;dy=22;" parent="usdk7RZo3pvC-N4byeOp-62" vertex="1">
          <mxGeometry x="78" y="-117" width="440" height="132" as="geometry" />
        </mxCell>
        <mxCell id="usdk7RZo3pvC-N4byeOp-65" value="pacote_id integer not null references pacote(pacote_id)" style="text;strokeColor=none;fillColor=none;align=left;verticalAlign=middle;spacingLeft=4;spacingRight=4;overflow=hidden;points=[[0,0.5],[1,0.5]];portConstraint=eastwest;rotatable=0;whiteSpace=wrap;html=1;" parent="usdk7RZo3pvC-N4byeOp-62" vertex="1">
          <mxGeometry x="108" y="-117" width="340" height="18" as="geometry" />
        </mxCell>
        <mxCell id="usdk7RZo3pvC-N4byeOp-66" value="FK" style="text;strokeColor=none;fillColor=none;align=left;verticalAlign=middle;spacingLeft=4;spacingRight=4;overflow=hidden;points=[[0,0.5],[1,0.5]];portConstraint=eastwest;rotatable=0;whiteSpace=wrap;html=1;" parent="usdk7RZo3pvC-N4byeOp-62" vertex="1">
          <mxGeometry x="78" y="-117" width="30" height="18" as="geometry" />
        </mxCell>
        <mxCell id="usdk7RZo3pvC-N4byeOp-67" value="primary key(pacote_id, hospedagem_id)" style="text;strokeColor=none;fillColor=none;align=left;verticalAlign=middle;spacingLeft=4;spacingRight=4;overflow=hidden;points=[[0,0.5],[1,0.5]];portConstraint=eastwest;rotatable=0;whiteSpace=wrap;html=1;" parent="usdk7RZo3pvC-N4byeOp-62" vertex="1">
          <mxGeometry x="108" y="-60" width="290" height="18" as="geometry" />
        </mxCell>
        <mxCell id="usdk7RZo3pvC-N4byeOp-68" value="passagem_id integer not null references passagem(passagem_id)" style="text;strokeColor=none;fillColor=none;align=left;verticalAlign=middle;spacingLeft=4;spacingRight=4;overflow=hidden;points=[[0,0.5],[1,0.5]];portConstraint=eastwest;rotatable=0;whiteSpace=wrap;html=1;" parent="usdk7RZo3pvC-N4byeOp-62" vertex="1">
          <mxGeometry x="108" y="-87" width="410" height="18" as="geometry" />
        </mxCell>
        <mxCell id="usdk7RZo3pvC-N4byeOp-69" value="FK" style="text;strokeColor=none;fillColor=none;align=left;verticalAlign=middle;spacingLeft=4;spacingRight=4;overflow=hidden;points=[[0,0.5],[1,0.5]];portConstraint=eastwest;rotatable=0;whiteSpace=wrap;html=1;" parent="usdk7RZo3pvC-N4byeOp-62" vertex="1">
          <mxGeometry x="78" y="-87" width="30" height="18" as="geometry" />
        </mxCell>
        <mxCell id="usdk7RZo3pvC-N4byeOp-70" value="" style="group" parent="1" connectable="0" vertex="1">
          <mxGeometry x="4868" y="1594" width="410" height="220" as="geometry" />
        </mxCell>
        <mxCell id="usdk7RZo3pvC-N4byeOp-71" value="pagamento" style="swimlane;fontStyle=0;childLayout=stackLayout;horizontal=1;startSize=30;horizontalStack=0;resizeParent=1;resizeParentMax=0;resizeLast=0;collapsible=1;marginBottom=0;whiteSpace=wrap;html=1;" parent="usdk7RZo3pvC-N4byeOp-70" vertex="1">
          <mxGeometry width="390" height="52.8" as="geometry" />
        </mxCell>
        <mxCell id="usdk7RZo3pvC-N4byeOp-72" value="" style="shape=internalStorage;whiteSpace=wrap;html=1;backgroundOutline=1;dx=30;dy=30;" parent="usdk7RZo3pvC-N4byeOp-70" vertex="1">
          <mxGeometry y="26.4" width="390" height="193.6" as="geometry" />
        </mxCell>
        <mxCell id="usdk7RZo3pvC-N4byeOp-73" value="pagamento_id bigserial" style="text;strokeColor=none;fillColor=none;align=left;verticalAlign=middle;spacingLeft=4;spacingRight=4;overflow=hidden;points=[[0,0.5],[1,0.5]];portConstraint=eastwest;rotatable=0;whiteSpace=wrap;html=1;" parent="usdk7RZo3pvC-N4byeOp-70" vertex="1">
          <mxGeometry x="30" y="26.4" width="160" height="26.4" as="geometry" />
        </mxCell>
        <mxCell id="usdk7RZo3pvC-N4byeOp-74" value="PK" style="text;strokeColor=none;fillColor=none;align=left;verticalAlign=middle;spacingLeft=4;spacingRight=4;overflow=hidden;points=[[0,0.5],[1,0.5]];portConstraint=eastwest;rotatable=0;whiteSpace=wrap;html=1;" parent="usdk7RZo3pvC-N4byeOp-70" vertex="1">
          <mxGeometry y="26.4" width="30" height="26.4" as="geometry" />
        </mxCell>
        <mxCell id="usdk7RZo3pvC-N4byeOp-75" value="forma_pagamento varchar(50) not null" style="text;strokeColor=none;fillColor=none;align=left;verticalAlign=middle;spacingLeft=4;spacingRight=4;overflow=hidden;points=[[0,0.5],[1,0.5]];portConstraint=eastwest;rotatable=0;whiteSpace=wrap;html=1;" parent="usdk7RZo3pvC-N4byeOp-70" vertex="1">
          <mxGeometry x="30" y="105.6" width="270" height="26.4" as="geometry" />
        </mxCell>
        <mxCell id="usdk7RZo3pvC-N4byeOp-76" value="data_pagamento timestamp not null" style="text;strokeColor=none;fillColor=none;align=left;verticalAlign=middle;spacingLeft=4;spacingRight=4;overflow=hidden;points=[[0,0.5],[1,0.5]];portConstraint=eastwest;rotatable=0;whiteSpace=wrap;html=1;" parent="usdk7RZo3pvC-N4byeOp-70" vertex="1">
          <mxGeometry x="30" y="132" width="210" height="26.4" as="geometry" />
        </mxCell>
        <mxCell id="usdk7RZo3pvC-N4byeOp-77" value="numero_parcelas integer default 1 check (numero_parcelas &amp;gt;=1" style="text;strokeColor=none;fillColor=none;align=left;verticalAlign=middle;spacingLeft=4;spacingRight=4;overflow=hidden;points=[[0,0.5],[1,0.5]];portConstraint=eastwest;rotatable=0;whiteSpace=wrap;html=1;" parent="usdk7RZo3pvC-N4byeOp-70" vertex="1">
          <mxGeometry x="30" y="158.4" width="380" height="26.4" as="geometry" />
        </mxCell>
        <mxCell id="usdk7RZo3pvC-N4byeOp-78" value="pacote_id integer not null references pacote(pacote_id)" style="text;strokeColor=none;fillColor=none;align=left;verticalAlign=middle;spacingLeft=4;spacingRight=4;overflow=hidden;points=[[0,0.5],[1,0.5]];portConstraint=eastwest;rotatable=0;whiteSpace=wrap;html=1;" parent="usdk7RZo3pvC-N4byeOp-70" vertex="1">
          <mxGeometry x="30" y="52.8" width="310" height="26.4" as="geometry" />
        </mxCell>
        <mxCell id="usdk7RZo3pvC-N4byeOp-79" value="FK" style="text;strokeColor=none;fillColor=none;align=left;verticalAlign=middle;spacingLeft=4;spacingRight=4;overflow=hidden;points=[[0,0.5],[1,0.5]];portConstraint=eastwest;rotatable=0;whiteSpace=wrap;html=1;" parent="usdk7RZo3pvC-N4byeOp-70" vertex="1">
          <mxGeometry y="52.8" width="30" height="26.4" as="geometry" />
        </mxCell>
        <mxCell id="usdk7RZo3pvC-N4byeOp-80" value="valor decimal not null" style="text;strokeColor=none;fillColor=none;align=left;verticalAlign=middle;spacingLeft=4;spacingRight=4;overflow=hidden;points=[[0,0.5],[1,0.5]];portConstraint=eastwest;rotatable=0;whiteSpace=wrap;html=1;" parent="usdk7RZo3pvC-N4byeOp-70" vertex="1">
          <mxGeometry x="30" y="79.2" width="310" height="26.4" as="geometry" />
        </mxCell>
        <mxCell id="usdk7RZo3pvC-N4byeOp-81" value="" style="group" parent="1" connectable="0" vertex="1">
          <mxGeometry x="4317" y="1597" width="410" height="220" as="geometry" />
        </mxCell>
        <mxCell id="usdk7RZo3pvC-N4byeOp-82" value="funcionario" style="swimlane;fontStyle=0;childLayout=stackLayout;horizontal=1;startSize=30;horizontalStack=0;resizeParent=1;resizeParentMax=0;resizeLast=0;collapsible=1;marginBottom=0;whiteSpace=wrap;html=1;" parent="usdk7RZo3pvC-N4byeOp-81" vertex="1">
          <mxGeometry width="390" height="52.8" as="geometry" />
        </mxCell>
        <mxCell id="usdk7RZo3pvC-N4byeOp-83" value="" style="shape=internalStorage;whiteSpace=wrap;html=1;backgroundOutline=1;dx=30;dy=30;" parent="usdk7RZo3pvC-N4byeOp-81" vertex="1">
          <mxGeometry y="26.4" width="390" height="193.6" as="geometry" />
        </mxCell>
        <mxCell id="usdk7RZo3pvC-N4byeOp-84" value="funcionario_id bigserial" style="text;strokeColor=none;fillColor=none;align=left;verticalAlign=middle;spacingLeft=4;spacingRight=4;overflow=hidden;points=[[0,0.5],[1,0.5]];portConstraint=eastwest;rotatable=0;whiteSpace=wrap;html=1;" parent="usdk7RZo3pvC-N4byeOp-81" vertex="1">
          <mxGeometry x="30" y="26.4" width="160" height="26.4" as="geometry" />
        </mxCell>
        <mxCell id="usdk7RZo3pvC-N4byeOp-85" value="PK" style="text;strokeColor=none;fillColor=none;align=left;verticalAlign=middle;spacingLeft=4;spacingRight=4;overflow=hidden;points=[[0,0.5],[1,0.5]];portConstraint=eastwest;rotatable=0;whiteSpace=wrap;html=1;" parent="usdk7RZo3pvC-N4byeOp-81" vertex="1">
          <mxGeometry y="26.4" width="30" height="26.4" as="geometry" />
        </mxCell>
        <mxCell id="usdk7RZo3pvC-N4byeOp-86" value="telefone varchar(11)" style="text;strokeColor=none;fillColor=none;align=left;verticalAlign=middle;spacingLeft=4;spacingRight=4;overflow=hidden;points=[[0,0.5],[1,0.5]];portConstraint=eastwest;rotatable=0;whiteSpace=wrap;html=1;" parent="usdk7RZo3pvC-N4byeOp-81" vertex="1">
          <mxGeometry x="30" y="105.6" width="270" height="26.4" as="geometry" />
        </mxCell>
        <mxCell id="usdk7RZo3pvC-N4byeOp-87" value="cargo varchar(100) not null" style="text;strokeColor=none;fillColor=none;align=left;verticalAlign=middle;spacingLeft=4;spacingRight=4;overflow=hidden;points=[[0,0.5],[1,0.5]];portConstraint=eastwest;rotatable=0;whiteSpace=wrap;html=1;" parent="usdk7RZo3pvC-N4byeOp-81" vertex="1">
          <mxGeometry x="30" y="132" width="210" height="26.4" as="geometry" />
        </mxCell>
        <mxCell id="usdk7RZo3pvC-N4byeOp-88" value="constraint cpf_func check (char_length(cpf) = 14)" style="text;strokeColor=none;fillColor=none;align=left;verticalAlign=middle;spacingLeft=4;spacingRight=4;overflow=hidden;points=[[0,0.5],[1,0.5]];portConstraint=eastwest;rotatable=0;whiteSpace=wrap;html=1;" parent="usdk7RZo3pvC-N4byeOp-81" vertex="1">
          <mxGeometry x="30" y="158.4" width="380" height="26.4" as="geometry" />
        </mxCell>
        <mxCell id="usdk7RZo3pvC-N4byeOp-89" value="nome varchar(255) not null" style="text;strokeColor=none;fillColor=none;align=left;verticalAlign=middle;spacingLeft=4;spacingRight=4;overflow=hidden;points=[[0,0.5],[1,0.5]];portConstraint=eastwest;rotatable=0;whiteSpace=wrap;html=1;" parent="usdk7RZo3pvC-N4byeOp-81" vertex="1">
          <mxGeometry x="30" y="52.8" width="310" height="26.4" as="geometry" />
        </mxCell>
        <mxCell id="usdk7RZo3pvC-N4byeOp-90" value="cpf char(14) unique not null" style="text;strokeColor=none;fillColor=none;align=left;verticalAlign=middle;spacingLeft=4;spacingRight=4;overflow=hidden;points=[[0,0.5],[1,0.5]];portConstraint=eastwest;rotatable=0;whiteSpace=wrap;html=1;" parent="usdk7RZo3pvC-N4byeOp-81" vertex="1">
          <mxGeometry x="30" y="79.2" width="310" height="26.4" as="geometry" />
        </mxCell>
        <mxCell id="usdk7RZo3pvC-N4byeOp-91" value="constraint telefone_func check (char_length(telefone) = 11)" style="text;strokeColor=none;fillColor=none;align=left;verticalAlign=middle;spacingLeft=4;spacingRight=4;overflow=hidden;points=[[0,0.5],[1,0.5]];portConstraint=eastwest;rotatable=0;whiteSpace=wrap;html=1;" parent="usdk7RZo3pvC-N4byeOp-81" vertex="1">
          <mxGeometry x="30" y="184.8" width="380" height="26.4" as="geometry" />
        </mxCell>
        <mxCell id="usdk7RZo3pvC-N4byeOp-104" value="" style="group" parent="1" connectable="0" vertex="1">
          <mxGeometry x="4051" y="2041" width="520" height="250" as="geometry" />
        </mxCell>
        <mxCell id="usdk7RZo3pvC-N4byeOp-105" value="transporte" style="swimlane;fontStyle=0;childLayout=stackLayout;horizontal=1;startSize=30;horizontalStack=0;resizeParent=1;resizeParentMax=0;resizeLast=0;collapsible=1;marginBottom=0;whiteSpace=wrap;html=1;" parent="usdk7RZo3pvC-N4byeOp-104" vertex="1">
          <mxGeometry y="-10" width="440" height="36" as="geometry">
            <mxRectangle width="80" height="30" as="alternateBounds" />
          </mxGeometry>
        </mxCell>
        <mxCell id="usdk7RZo3pvC-N4byeOp-106" value="" style="shape=internalStorage;whiteSpace=wrap;html=1;backgroundOutline=1;dx=30;dy=22;" parent="usdk7RZo3pvC-N4byeOp-104" vertex="1">
          <mxGeometry y="18" width="440" height="232" as="geometry" />
        </mxCell>
        <mxCell id="usdk7RZo3pvC-N4byeOp-107" value="transporte_id bigserial&amp;nbsp;" style="text;strokeColor=none;fillColor=none;align=left;verticalAlign=middle;spacingLeft=4;spacingRight=4;overflow=hidden;points=[[0,0.5],[1,0.5]];portConstraint=eastwest;rotatable=0;whiteSpace=wrap;html=1;" parent="usdk7RZo3pvC-N4byeOp-104" vertex="1">
          <mxGeometry x="30" y="18" width="340" height="18" as="geometry" />
        </mxCell>
        <mxCell id="usdk7RZo3pvC-N4byeOp-108" value="PK" style="text;strokeColor=none;fillColor=none;align=left;verticalAlign=middle;spacingLeft=4;spacingRight=4;overflow=hidden;points=[[0,0.5],[1,0.5]];portConstraint=eastwest;rotatable=0;whiteSpace=wrap;html=1;" parent="usdk7RZo3pvC-N4byeOp-104" vertex="1">
          <mxGeometry y="18" width="30" height="18" as="geometry" />
        </mxCell>
        <mxCell id="usdk7RZo3pvC-N4byeOp-109" value="destino_id integer not null references endereco(endereco_id)" style="text;strokeColor=none;fillColor=none;align=left;verticalAlign=middle;spacingLeft=4;spacingRight=4;overflow=hidden;points=[[0,0.5],[1,0.5]];portConstraint=eastwest;rotatable=0;whiteSpace=wrap;html=1;" parent="usdk7RZo3pvC-N4byeOp-104" vertex="1">
          <mxGeometry x="30" y="75" width="370" height="18" as="geometry" />
        </mxCell>
        <mxCell id="usdk7RZo3pvC-N4byeOp-110" value="&lt;div&gt;origem_id integer not null null references endreco(endereco_id)&lt;/div&gt;" style="text;strokeColor=none;fillColor=none;align=left;verticalAlign=middle;spacingLeft=4;spacingRight=4;overflow=hidden;points=[[0,0.5],[1,0.5]];portConstraint=eastwest;rotatable=0;whiteSpace=wrap;html=1;" parent="usdk7RZo3pvC-N4byeOp-104" vertex="1">
          <mxGeometry x="30" y="48" width="410" height="18" as="geometry" />
        </mxCell>
        <mxCell id="usdk7RZo3pvC-N4byeOp-111" value="FK" style="text;strokeColor=none;fillColor=none;align=left;verticalAlign=middle;spacingLeft=4;spacingRight=4;overflow=hidden;points=[[0,0.5],[1,0.5]];portConstraint=eastwest;rotatable=0;whiteSpace=wrap;html=1;" parent="usdk7RZo3pvC-N4byeOp-104" vertex="1">
          <mxGeometry y="48" width="30" height="18" as="geometry" />
        </mxCell>
        <mxCell id="usdk7RZo3pvC-N4byeOp-112" value="tipo_transporte varchar(50) not null" style="text;strokeColor=none;fillColor=none;align=left;verticalAlign=middle;spacingLeft=4;spacingRight=4;overflow=hidden;points=[[0,0.5],[1,0.5]];portConstraint=eastwest;rotatable=0;whiteSpace=wrap;html=1;" parent="usdk7RZo3pvC-N4byeOp-104" vertex="1">
          <mxGeometry x="30" y="103" width="410" height="18" as="geometry" />
        </mxCell>
        <mxCell id="usdk7RZo3pvC-N4byeOp-113" value="FK" style="text;strokeColor=none;fillColor=none;align=left;verticalAlign=middle;spacingLeft=4;spacingRight=4;overflow=hidden;points=[[0,0.5],[1,0.5]];portConstraint=eastwest;rotatable=0;whiteSpace=wrap;html=1;" parent="usdk7RZo3pvC-N4byeOp-104" vertex="1">
          <mxGeometry y="75" width="30" height="18" as="geometry" />
        </mxCell>
        <mxCell id="usdk7RZo3pvC-N4byeOp-114" value="companhia varchar(100)" style="text;strokeColor=none;fillColor=none;align=left;verticalAlign=middle;spacingLeft=4;spacingRight=4;overflow=hidden;points=[[0,0.5],[1,0.5]];portConstraint=eastwest;rotatable=0;whiteSpace=wrap;html=1;" parent="usdk7RZo3pvC-N4byeOp-104" vertex="1">
          <mxGeometry x="30" y="130" width="410" height="18" as="geometry" />
        </mxCell>
        <mxCell id="usdk7RZo3pvC-N4byeOp-115" value="data_partida timestamp not null" style="text;strokeColor=none;fillColor=none;align=left;verticalAlign=middle;spacingLeft=4;spacingRight=4;overflow=hidden;points=[[0,0.5],[1,0.5]];portConstraint=eastwest;rotatable=0;whiteSpace=wrap;html=1;" parent="usdk7RZo3pvC-N4byeOp-104" vertex="1">
          <mxGeometry x="30" y="160" width="410" height="18" as="geometry" />
        </mxCell>
        <mxCell id="usdk7RZo3pvC-N4byeOp-116" value="data_chegada timestamp not null" style="text;strokeColor=none;fillColor=none;align=left;verticalAlign=middle;spacingLeft=4;spacingRight=4;overflow=hidden;points=[[0,0.5],[1,0.5]];portConstraint=eastwest;rotatable=0;whiteSpace=wrap;html=1;" parent="usdk7RZo3pvC-N4byeOp-104" vertex="1">
          <mxGeometry x="30" y="190" width="410" height="18" as="geometry" />
        </mxCell>
        <mxCell id="usdk7RZo3pvC-N4byeOp-117" value="constraint origem_destino_diferentes check (origem_id &amp;lt;&amp;gt; destino_id)" style="text;strokeColor=none;fillColor=none;align=left;verticalAlign=middle;spacingLeft=4;spacingRight=4;overflow=hidden;points=[[0,0.5],[1,0.5]];portConstraint=eastwest;rotatable=0;whiteSpace=wrap;html=1;" parent="usdk7RZo3pvC-N4byeOp-104" vertex="1">
          <mxGeometry x="30" y="220" width="410" height="18" as="geometry" />
        </mxCell>
        <mxCell id="usdk7RZo3pvC-N4byeOp-118" value="" style="group" parent="1" connectable="0" vertex="1">
          <mxGeometry x="4114" y="2478" width="520" height="250" as="geometry" />
        </mxCell>
        <mxCell id="usdk7RZo3pvC-N4byeOp-119" value="pacote_transporte" style="swimlane;fontStyle=0;childLayout=stackLayout;horizontal=1;startSize=30;horizontalStack=0;resizeParent=1;resizeParentMax=0;resizeLast=0;collapsible=1;marginBottom=0;whiteSpace=wrap;html=1;" parent="usdk7RZo3pvC-N4byeOp-118" vertex="1">
          <mxGeometry y="-10" width="440" height="36" as="geometry">
            <mxRectangle width="80" height="30" as="alternateBounds" />
          </mxGeometry>
        </mxCell>
        <mxCell id="usdk7RZo3pvC-N4byeOp-120" value="" style="shape=internalStorage;whiteSpace=wrap;html=1;backgroundOutline=1;dx=30;dy=22;" parent="usdk7RZo3pvC-N4byeOp-118" vertex="1">
          <mxGeometry y="18" width="440" height="130" as="geometry" />
        </mxCell>
        <mxCell id="usdk7RZo3pvC-N4byeOp-121" value="pacote_id integer not null references pacote(pacote_id)" style="text;strokeColor=none;fillColor=none;align=left;verticalAlign=middle;spacingLeft=4;spacingRight=4;overflow=hidden;points=[[0,0.5],[1,0.5]];portConstraint=eastwest;rotatable=0;whiteSpace=wrap;html=1;" parent="usdk7RZo3pvC-N4byeOp-118" vertex="1">
          <mxGeometry x="30" y="18" width="340" height="18" as="geometry" />
        </mxCell>
        <mxCell id="usdk7RZo3pvC-N4byeOp-122" value="FK" style="text;strokeColor=none;fillColor=none;align=left;verticalAlign=middle;spacingLeft=4;spacingRight=4;overflow=hidden;points=[[0,0.5],[1,0.5]];portConstraint=eastwest;rotatable=0;whiteSpace=wrap;html=1;" parent="usdk7RZo3pvC-N4byeOp-118" vertex="1">
          <mxGeometry y="18" width="30" height="18" as="geometry" />
        </mxCell>
        <mxCell id="usdk7RZo3pvC-N4byeOp-123" value="destino_id integer not null references destino(destino_id)" style="text;strokeColor=none;fillColor=none;align=left;verticalAlign=middle;spacingLeft=4;spacingRight=4;overflow=hidden;points=[[0,0.5],[1,0.5]];portConstraint=eastwest;rotatable=0;whiteSpace=wrap;html=1;" parent="usdk7RZo3pvC-N4byeOp-118" vertex="1">
          <mxGeometry x="30" y="75" width="370" height="18" as="geometry" />
        </mxCell>
        <mxCell id="usdk7RZo3pvC-N4byeOp-124" value="transporte_id integer not null references transporte(transporte_id)" style="text;strokeColor=none;fillColor=none;align=left;verticalAlign=middle;spacingLeft=4;spacingRight=4;overflow=hidden;points=[[0,0.5],[1,0.5]];portConstraint=eastwest;rotatable=0;whiteSpace=wrap;html=1;" parent="usdk7RZo3pvC-N4byeOp-118" vertex="1">
          <mxGeometry x="30" y="48" width="410" height="18" as="geometry" />
        </mxCell>
        <mxCell id="usdk7RZo3pvC-N4byeOp-125" value="FK" style="text;strokeColor=none;fillColor=none;align=left;verticalAlign=middle;spacingLeft=4;spacingRight=4;overflow=hidden;points=[[0,0.5],[1,0.5]];portConstraint=eastwest;rotatable=0;whiteSpace=wrap;html=1;" parent="usdk7RZo3pvC-N4byeOp-118" vertex="1">
          <mxGeometry y="48" width="30" height="18" as="geometry" />
        </mxCell>
        <mxCell id="usdk7RZo3pvC-N4byeOp-126" value="primary key (pacote_id, transporte_id)" style="text;strokeColor=none;fillColor=none;align=left;verticalAlign=middle;spacingLeft=4;spacingRight=4;overflow=hidden;points=[[0,0.5],[1,0.5]];portConstraint=eastwest;rotatable=0;whiteSpace=wrap;html=1;" parent="usdk7RZo3pvC-N4byeOp-118" vertex="1">
          <mxGeometry x="30" y="101" width="410" height="18" as="geometry" />
        </mxCell>
        <mxCell id="usdk7RZo3pvC-N4byeOp-127" value="FK" style="text;strokeColor=none;fillColor=none;align=left;verticalAlign=middle;spacingLeft=4;spacingRight=4;overflow=hidden;points=[[0,0.5],[1,0.5]];portConstraint=eastwest;rotatable=0;whiteSpace=wrap;html=1;" parent="usdk7RZo3pvC-N4byeOp-118" vertex="1">
          <mxGeometry y="75" width="30" height="18" as="geometry" />
        </mxCell>
        <mxCell id="usdk7RZo3pvC-N4byeOp-128" value="" style="group" parent="1" connectable="0" vertex="1">
          <mxGeometry x="4610" y="2041" width="520" height="250" as="geometry" />
        </mxCell>
        <mxCell id="usdk7RZo3pvC-N4byeOp-129" value="seguro" style="swimlane;fontStyle=0;childLayout=stackLayout;horizontal=1;startSize=30;horizontalStack=0;resizeParent=1;resizeParentMax=0;resizeLast=0;collapsible=1;marginBottom=0;whiteSpace=wrap;html=1;" parent="usdk7RZo3pvC-N4byeOp-128" vertex="1">
          <mxGeometry y="-10" width="440" height="36" as="geometry">
            <mxRectangle width="80" height="30" as="alternateBounds" />
          </mxGeometry>
        </mxCell>
        <mxCell id="usdk7RZo3pvC-N4byeOp-130" value="" style="shape=internalStorage;whiteSpace=wrap;html=1;backgroundOutline=1;dx=30;dy=22;" parent="usdk7RZo3pvC-N4byeOp-128" vertex="1">
          <mxGeometry y="18" width="440" height="110" as="geometry" />
        </mxCell>
        <mxCell id="usdk7RZo3pvC-N4byeOp-131" value="seguro_id bigserial&amp;nbsp;" style="text;strokeColor=none;fillColor=none;align=left;verticalAlign=middle;spacingLeft=4;spacingRight=4;overflow=hidden;points=[[0,0.5],[1,0.5]];portConstraint=eastwest;rotatable=0;whiteSpace=wrap;html=1;" parent="usdk7RZo3pvC-N4byeOp-128" vertex="1">
          <mxGeometry x="30" y="18" width="340" height="18" as="geometry" />
        </mxCell>
        <mxCell id="usdk7RZo3pvC-N4byeOp-132" value="PK" style="text;strokeColor=none;fillColor=none;align=left;verticalAlign=middle;spacingLeft=4;spacingRight=4;overflow=hidden;points=[[0,0.5],[1,0.5]];portConstraint=eastwest;rotatable=0;whiteSpace=wrap;html=1;" parent="usdk7RZo3pvC-N4byeOp-128" vertex="1">
          <mxGeometry y="18" width="30" height="18" as="geometry" />
        </mxCell>
        <mxCell id="usdk7RZo3pvC-N4byeOp-133" value="preco decimal not null" style="text;strokeColor=none;fillColor=none;align=left;verticalAlign=middle;spacingLeft=4;spacingRight=4;overflow=hidden;points=[[0,0.5],[1,0.5]];portConstraint=eastwest;rotatable=0;whiteSpace=wrap;html=1;" parent="usdk7RZo3pvC-N4byeOp-128" vertex="1">
          <mxGeometry x="30" y="75" width="370" height="18" as="geometry" />
        </mxCell>
        <mxCell id="usdk7RZo3pvC-N4byeOp-134" value="cobertura varchar(255) not null," style="text;strokeColor=none;fillColor=none;align=left;verticalAlign=middle;spacingLeft=4;spacingRight=4;overflow=hidden;points=[[0,0.5],[1,0.5]];portConstraint=eastwest;rotatable=0;whiteSpace=wrap;html=1;" parent="usdk7RZo3pvC-N4byeOp-128" vertex="1">
          <mxGeometry x="30" y="48" width="410" height="18" as="geometry" />
        </mxCell>
        <mxCell id="usdk7RZo3pvC-N4byeOp-135" value="" style="group" parent="1" connectable="0" vertex="1">
          <mxGeometry x="4647" y="2489" width="520" height="250" as="geometry" />
        </mxCell>
        <mxCell id="usdk7RZo3pvC-N4byeOp-136" value="pacote_seguro" style="swimlane;fontStyle=0;childLayout=stackLayout;horizontal=1;startSize=30;horizontalStack=0;resizeParent=1;resizeParentMax=0;resizeLast=0;collapsible=1;marginBottom=0;whiteSpace=wrap;html=1;" parent="usdk7RZo3pvC-N4byeOp-135" vertex="1">
          <mxGeometry y="-10" width="440" height="36" as="geometry">
            <mxRectangle width="80" height="30" as="alternateBounds" />
          </mxGeometry>
        </mxCell>
        <mxCell id="usdk7RZo3pvC-N4byeOp-137" value="" style="shape=internalStorage;whiteSpace=wrap;html=1;backgroundOutline=1;dx=30;dy=22;" parent="usdk7RZo3pvC-N4byeOp-135" vertex="1">
          <mxGeometry y="18" width="440" height="100" as="geometry" />
        </mxCell>
        <mxCell id="usdk7RZo3pvC-N4byeOp-138" value="pacote_id integer not null references pacote(pacote_id)" style="text;strokeColor=none;fillColor=none;align=left;verticalAlign=middle;spacingLeft=4;spacingRight=4;overflow=hidden;points=[[0,0.5],[1,0.5]];portConstraint=eastwest;rotatable=0;whiteSpace=wrap;html=1;" parent="usdk7RZo3pvC-N4byeOp-135" vertex="1">
          <mxGeometry x="30" y="18" width="340" height="18" as="geometry" />
        </mxCell>
        <mxCell id="usdk7RZo3pvC-N4byeOp-139" value="FK" style="text;strokeColor=none;fillColor=none;align=left;verticalAlign=middle;spacingLeft=4;spacingRight=4;overflow=hidden;points=[[0,0.5],[1,0.5]];portConstraint=eastwest;rotatable=0;whiteSpace=wrap;html=1;" parent="usdk7RZo3pvC-N4byeOp-135" vertex="1">
          <mxGeometry y="18" width="30" height="18" as="geometry" />
        </mxCell>
        <mxCell id="usdk7RZo3pvC-N4byeOp-140" value="primary key (pacote_id, seguro_id)" style="text;strokeColor=none;fillColor=none;align=left;verticalAlign=middle;spacingLeft=4;spacingRight=4;overflow=hidden;points=[[0,0.5],[1,0.5]];portConstraint=eastwest;rotatable=0;whiteSpace=wrap;html=1;" parent="usdk7RZo3pvC-N4byeOp-135" vertex="1">
          <mxGeometry x="30" y="75" width="370" height="18" as="geometry" />
        </mxCell>
        <mxCell id="usdk7RZo3pvC-N4byeOp-141" value="seguro_id integer not null references seguro(seguro_id)" style="text;strokeColor=none;fillColor=none;align=left;verticalAlign=middle;spacingLeft=4;spacingRight=4;overflow=hidden;points=[[0,0.5],[1,0.5]];portConstraint=eastwest;rotatable=0;whiteSpace=wrap;html=1;" parent="usdk7RZo3pvC-N4byeOp-135" vertex="1">
          <mxGeometry x="30" y="48" width="410" height="18" as="geometry" />
        </mxCell>
        <mxCell id="usdk7RZo3pvC-N4byeOp-142" value="FK" style="text;strokeColor=none;fillColor=none;align=left;verticalAlign=middle;spacingLeft=4;spacingRight=4;overflow=hidden;points=[[0,0.5],[1,0.5]];portConstraint=eastwest;rotatable=0;whiteSpace=wrap;html=1;" parent="usdk7RZo3pvC-N4byeOp-135" vertex="1">
          <mxGeometry y="48" width="30" height="18" as="geometry" />
        </mxCell>
        <mxCell id="usdk7RZo3pvC-N4byeOp-143" value="" style="group" parent="1" connectable="0" vertex="1">
          <mxGeometry x="5147" y="2033" width="520" height="150" as="geometry" />
        </mxCell>
        <mxCell id="usdk7RZo3pvC-N4byeOp-144" value="atividade" style="swimlane;fontStyle=0;childLayout=stackLayout;horizontal=1;startSize=30;horizontalStack=0;resizeParent=1;resizeParentMax=0;resizeLast=0;collapsible=1;marginBottom=0;whiteSpace=wrap;html=1;" parent="usdk7RZo3pvC-N4byeOp-143" vertex="1">
          <mxGeometry y="-10" width="440" height="36" as="geometry">
            <mxRectangle width="80" height="30" as="alternateBounds" />
          </mxGeometry>
        </mxCell>
        <mxCell id="usdk7RZo3pvC-N4byeOp-145" value="" style="shape=internalStorage;whiteSpace=wrap;html=1;backgroundOutline=1;dx=30;dy=22;" parent="usdk7RZo3pvC-N4byeOp-143" vertex="1">
          <mxGeometry y="18" width="440" height="132" as="geometry" />
        </mxCell>
        <mxCell id="usdk7RZo3pvC-N4byeOp-146" value="atividade_id bigserial&amp;nbsp;" style="text;strokeColor=none;fillColor=none;align=left;verticalAlign=middle;spacingLeft=4;spacingRight=4;overflow=hidden;points=[[0,0.5],[1,0.5]];portConstraint=eastwest;rotatable=0;whiteSpace=wrap;html=1;" parent="usdk7RZo3pvC-N4byeOp-143" vertex="1">
          <mxGeometry x="30" y="18" width="340" height="18" as="geometry" />
        </mxCell>
        <mxCell id="usdk7RZo3pvC-N4byeOp-147" value="PK" style="text;strokeColor=none;fillColor=none;align=left;verticalAlign=middle;spacingLeft=4;spacingRight=4;overflow=hidden;points=[[0,0.5],[1,0.5]];portConstraint=eastwest;rotatable=0;whiteSpace=wrap;html=1;" parent="usdk7RZo3pvC-N4byeOp-143" vertex="1">
          <mxGeometry y="18" width="30" height="18" as="geometry" />
        </mxCell>
        <mxCell id="usdk7RZo3pvC-N4byeOp-148" value="nome varchar(255) not null" style="text;strokeColor=none;fillColor=none;align=left;verticalAlign=middle;spacingLeft=4;spacingRight=4;overflow=hidden;points=[[0,0.5],[1,0.5]];portConstraint=eastwest;rotatable=0;whiteSpace=wrap;html=1;" parent="usdk7RZo3pvC-N4byeOp-143" vertex="1">
          <mxGeometry x="30" y="75" width="370" height="18" as="geometry" />
        </mxCell>
        <mxCell id="usdk7RZo3pvC-N4byeOp-149" value="cidade_id integer not null references cidade(cidade_id)" style="text;strokeColor=none;fillColor=none;align=left;verticalAlign=middle;spacingLeft=4;spacingRight=4;overflow=hidden;points=[[0,0.5],[1,0.5]];portConstraint=eastwest;rotatable=0;whiteSpace=wrap;html=1;" parent="usdk7RZo3pvC-N4byeOp-143" vertex="1">
          <mxGeometry x="30" y="48" width="410" height="18" as="geometry" />
        </mxCell>
        <mxCell id="usdk7RZo3pvC-N4byeOp-150" value="FK" style="text;strokeColor=none;fillColor=none;align=left;verticalAlign=middle;spacingLeft=4;spacingRight=4;overflow=hidden;points=[[0,0.5],[1,0.5]];portConstraint=eastwest;rotatable=0;whiteSpace=wrap;html=1;" parent="usdk7RZo3pvC-N4byeOp-143" vertex="1">
          <mxGeometry y="48" width="30" height="18" as="geometry" />
        </mxCell>
        <mxCell id="usdk7RZo3pvC-N4byeOp-151" value="descricao text" style="text;strokeColor=none;fillColor=none;align=left;verticalAlign=middle;spacingLeft=4;spacingRight=4;overflow=hidden;points=[[0,0.5],[1,0.5]];portConstraint=eastwest;rotatable=0;whiteSpace=wrap;html=1;" parent="usdk7RZo3pvC-N4byeOp-143" vertex="1">
          <mxGeometry x="30" y="100" width="410" height="18" as="geometry" />
        </mxCell>
        <mxCell id="usdk7RZo3pvC-N4byeOp-152" value="preco decimal not null" style="text;strokeColor=none;fillColor=none;align=left;verticalAlign=middle;spacingLeft=4;spacingRight=4;overflow=hidden;points=[[0,0.5],[1,0.5]];portConstraint=eastwest;rotatable=0;whiteSpace=wrap;html=1;" parent="usdk7RZo3pvC-N4byeOp-143" vertex="1">
          <mxGeometry x="30" y="124" width="410" height="18" as="geometry" />
        </mxCell>
        <mxCell id="usdk7RZo3pvC-N4byeOp-92" value="" style="group" parent="1" connectable="0" vertex="1">
          <mxGeometry x="3633" y="1640" width="656" height="150" as="geometry" />
        </mxCell>
        <mxCell id="usdk7RZo3pvC-N4byeOp-93" value="venda" style="swimlane;fontStyle=0;childLayout=stackLayout;horizontal=1;startSize=30;horizontalStack=0;resizeParent=1;resizeParentMax=0;resizeLast=0;collapsible=1;marginBottom=0;whiteSpace=wrap;html=1;" parent="usdk7RZo3pvC-N4byeOp-92" vertex="1">
          <mxGeometry y="-10" width="440" height="36" as="geometry">
            <mxRectangle width="80" height="30" as="alternateBounds" />
          </mxGeometry>
        </mxCell>
        <mxCell id="usdk7RZo3pvC-N4byeOp-94" value="" style="shape=internalStorage;whiteSpace=wrap;html=1;backgroundOutline=1;dx=30;dy=22;" parent="usdk7RZo3pvC-N4byeOp-92" vertex="1">
          <mxGeometry y="18" width="440" height="132" as="geometry" />
        </mxCell>
        <mxCell id="usdk7RZo3pvC-N4byeOp-95" value="venda_id bigserial&amp;nbsp;" style="text;strokeColor=none;fillColor=none;align=left;verticalAlign=middle;spacingLeft=4;spacingRight=4;overflow=hidden;points=[[0,0.5],[1,0.5]];portConstraint=eastwest;rotatable=0;whiteSpace=wrap;html=1;" parent="usdk7RZo3pvC-N4byeOp-92" vertex="1">
          <mxGeometry x="30" y="18" width="340" height="18" as="geometry" />
        </mxCell>
        <mxCell id="usdk7RZo3pvC-N4byeOp-96" value="PK" style="text;strokeColor=none;fillColor=none;align=left;verticalAlign=middle;spacingLeft=4;spacingRight=4;overflow=hidden;points=[[0,0.5],[1,0.5]];portConstraint=eastwest;rotatable=0;whiteSpace=wrap;html=1;" parent="usdk7RZo3pvC-N4byeOp-92" vertex="1">
          <mxGeometry y="18" width="30" height="18" as="geometry" />
        </mxCell>
        <mxCell id="usdk7RZo3pvC-N4byeOp-97" value="cliente_id integer not null references cliente(cliente_id)" style="text;strokeColor=none;fillColor=none;align=left;verticalAlign=middle;spacingLeft=4;spacingRight=4;overflow=hidden;points=[[0,0.5],[1,0.5]];portConstraint=eastwest;rotatable=0;whiteSpace=wrap;html=1;" parent="usdk7RZo3pvC-N4byeOp-92" vertex="1">
          <mxGeometry x="30" y="75" width="370" height="18" as="geometry" />
        </mxCell>
        <mxCell id="usdk7RZo3pvC-N4byeOp-98" value="pacote_id integer not null references pacote(pacote_id)" style="text;strokeColor=none;fillColor=none;align=left;verticalAlign=middle;spacingLeft=4;spacingRight=4;overflow=hidden;points=[[0,0.5],[1,0.5]];portConstraint=eastwest;rotatable=0;whiteSpace=wrap;html=1;" parent="usdk7RZo3pvC-N4byeOp-92" vertex="1">
          <mxGeometry x="30" y="48" width="410" height="18" as="geometry" />
        </mxCell>
        <mxCell id="usdk7RZo3pvC-N4byeOp-99" value="FK" style="text;strokeColor=none;fillColor=none;align=left;verticalAlign=middle;spacingLeft=4;spacingRight=4;overflow=hidden;points=[[0,0.5],[1,0.5]];portConstraint=eastwest;rotatable=0;whiteSpace=wrap;html=1;" parent="usdk7RZo3pvC-N4byeOp-92" vertex="1">
          <mxGeometry y="48" width="30" height="18" as="geometry" />
        </mxCell>
        <mxCell id="usdk7RZo3pvC-N4byeOp-100" value="FK" style="text;strokeColor=none;fillColor=none;align=left;verticalAlign=middle;spacingLeft=4;spacingRight=4;overflow=hidden;points=[[0,0.5],[1,0.5]];portConstraint=eastwest;rotatable=0;whiteSpace=wrap;html=1;" parent="usdk7RZo3pvC-N4byeOp-92" vertex="1">
          <mxGeometry y="100" width="30" height="18" as="geometry" />
        </mxCell>
        <mxCell id="usdk7RZo3pvC-N4byeOp-101" value="funcionario_id integer not null references funcionario(funcionario_id)" style="text;strokeColor=none;fillColor=none;align=left;verticalAlign=middle;spacingLeft=4;spacingRight=4;overflow=hidden;points=[[0,0.5],[1,0.5]];portConstraint=eastwest;rotatable=0;whiteSpace=wrap;html=1;" parent="usdk7RZo3pvC-N4byeOp-92" vertex="1">
          <mxGeometry x="30" y="100" width="410" height="18" as="geometry" />
        </mxCell>
        <mxCell id="usdk7RZo3pvC-N4byeOp-102" value="FK" style="text;strokeColor=none;fillColor=none;align=left;verticalAlign=middle;spacingLeft=4;spacingRight=4;overflow=hidden;points=[[0,0.5],[1,0.5]];portConstraint=eastwest;rotatable=0;whiteSpace=wrap;html=1;" parent="usdk7RZo3pvC-N4byeOp-92" vertex="1">
          <mxGeometry y="75" width="30" height="18" as="geometry" />
        </mxCell>
        <mxCell id="usdk7RZo3pvC-N4byeOp-103" value="data_venda timestamp not null" style="text;strokeColor=none;fillColor=none;align=left;verticalAlign=middle;spacingLeft=4;spacingRight=4;overflow=hidden;points=[[0,0.5],[1,0.5]];portConstraint=eastwest;rotatable=0;whiteSpace=wrap;html=1;" parent="usdk7RZo3pvC-N4byeOp-92" vertex="1">
          <mxGeometry x="30" y="120" width="410" height="18" as="geometry" />
        </mxCell>
        <mxCell id="usdk7RZo3pvC-N4byeOp-154" value="hotel" style="swimlane;fontStyle=0;childLayout=stackLayout;horizontal=1;startSize=30;horizontalStack=0;resizeParent=1;resizeParentMax=0;resizeLast=0;collapsible=1;marginBottom=0;whiteSpace=wrap;html=1;" parent="1" vertex="1">
          <mxGeometry x="1843" y="1665" width="390" height="60" as="geometry" />
        </mxCell>
        <mxCell id="usdk7RZo3pvC-N4byeOp-155" value="" style="shape=internalStorage;whiteSpace=wrap;html=1;backgroundOutline=1;dx=30;dy=30;" parent="1" vertex="1">
          <mxGeometry x="1843" y="1695" width="390" height="100" as="geometry" />
        </mxCell>
        <mxCell id="usdk7RZo3pvC-N4byeOp-156" value="hotel_id bigserial" style="text;strokeColor=none;fillColor=none;align=left;verticalAlign=middle;spacingLeft=4;spacingRight=4;overflow=hidden;points=[[0,0.5],[1,0.5]];portConstraint=eastwest;rotatable=0;whiteSpace=wrap;html=1;" parent="1" vertex="1">
          <mxGeometry x="1875.093023255814" y="1695" width="149.7674418604651" height="30" as="geometry" />
        </mxCell>
        <mxCell id="usdk7RZo3pvC-N4byeOp-157" value="PK" style="text;strokeColor=none;fillColor=none;align=left;verticalAlign=middle;spacingLeft=4;spacingRight=4;overflow=hidden;points=[[0,0.5],[1,0.5]];portConstraint=eastwest;rotatable=0;whiteSpace=wrap;html=1;" parent="1" vertex="1">
          <mxGeometry x="1843" y="1695" width="32.093023255813954" height="30" as="geometry" />
        </mxCell>
        <mxCell id="usdk7RZo3pvC-N4byeOp-158" value="FK" style="text;strokeColor=none;fillColor=none;align=left;verticalAlign=middle;spacingLeft=4;spacingRight=4;overflow=hidden;points=[[0,0.5],[1,0.5]];portConstraint=eastwest;rotatable=0;whiteSpace=wrap;html=1;" parent="1" vertex="1">
          <mxGeometry x="1843" y="1725" width="32.093023255813954" height="30" as="geometry" />
        </mxCell>
        <mxCell id="usdk7RZo3pvC-N4byeOp-159" value="endreco_id integer not null references endereco(endereco_id)" style="text;strokeColor=none;fillColor=none;align=left;verticalAlign=middle;spacingLeft=4;spacingRight=4;overflow=hidden;points=[[0,0.5],[1,0.5]];portConstraint=eastwest;rotatable=0;whiteSpace=wrap;html=1;" parent="1" vertex="1">
          <mxGeometry x="1875.093023255814" y="1725" width="427.906976744186" height="30" as="geometry" />
        </mxCell>
        <mxCell id="usdk7RZo3pvC-N4byeOp-160" value="nome varchar(255) not null" style="text;strokeColor=none;fillColor=none;align=left;verticalAlign=middle;spacingLeft=4;spacingRight=4;overflow=hidden;points=[[0,0.5],[1,0.5]];portConstraint=eastwest;rotatable=0;whiteSpace=wrap;html=1;" parent="1" vertex="1">
          <mxGeometry x="1875.093023255814" y="1755" width="342.3255813953488" height="30" as="geometry" />
        </mxCell>
        <mxCell id="usdk7RZo3pvC-N4byeOp-162" value="" style="endArrow=none;html=1;rounded=0;entryX=0.002;entryY=0.352;entryDx=0;entryDy=0;entryPerimeter=0;strokeColor=light-dark(#000000,#000000);" parent="1" edge="1">
          <mxGeometry width="50" height="50" relative="1" as="geometry">
            <mxPoint x="2559" y="1414.9991410366558" as="sourcePoint" />
            <mxPoint x="1508.1600000000003" y="1516.1599999999999" as="targetPoint" />
          </mxGeometry>
        </mxCell>
        <mxCell id="usdk7RZo3pvC-N4byeOp-177" value="" style="group" parent="1" vertex="1" connectable="0">
          <mxGeometry x="1824" y="2205" width="340" height="210" as="geometry" />
        </mxCell>
        <mxCell id="usdk7RZo3pvC-N4byeOp-178" value="cidade" style="swimlane;fontStyle=0;childLayout=stackLayout;horizontal=1;startSize=30;horizontalStack=0;resizeParent=1;resizeParentMax=0;resizeLast=0;collapsible=1;marginBottom=0;whiteSpace=wrap;html=1;" parent="usdk7RZo3pvC-N4byeOp-177" vertex="1">
          <mxGeometry width="330" height="50.39999999999999" as="geometry" />
        </mxCell>
        <mxCell id="usdk7RZo3pvC-N4byeOp-179" value="" style="shape=internalStorage;whiteSpace=wrap;html=1;backgroundOutline=1;dx=30;dy=30;" parent="usdk7RZo3pvC-N4byeOp-177" vertex="1">
          <mxGeometry y="25.199999999999996" width="330" height="184.80000000000004" as="geometry" />
        </mxCell>
        <mxCell id="usdk7RZo3pvC-N4byeOp-180" value="cidade_id bigserial" style="text;strokeColor=none;fillColor=none;align=left;verticalAlign=middle;spacingLeft=4;spacingRight=4;overflow=hidden;points=[[0,0.5],[1,0.5]];portConstraint=eastwest;rotatable=0;whiteSpace=wrap;html=1;" parent="usdk7RZo3pvC-N4byeOp-177" vertex="1">
          <mxGeometry x="30" y="25.199999999999996" width="140" height="25.199999999999996" as="geometry" />
        </mxCell>
        <mxCell id="usdk7RZo3pvC-N4byeOp-181" value="PK" style="text;strokeColor=none;fillColor=none;align=left;verticalAlign=middle;spacingLeft=4;spacingRight=4;overflow=hidden;points=[[0,0.5],[1,0.5]];portConstraint=eastwest;rotatable=0;whiteSpace=wrap;html=1;" parent="usdk7RZo3pvC-N4byeOp-177" vertex="1">
          <mxGeometry y="25.199999999999996" width="30" height="25.199999999999996" as="geometry" />
        </mxCell>
        <mxCell id="usdk7RZo3pvC-N4byeOp-182" value="nome varchar(100) not null" style="text;strokeColor=none;fillColor=none;align=left;verticalAlign=middle;spacingLeft=4;spacingRight=4;overflow=hidden;points=[[0,0.5],[1,0.5]];portConstraint=eastwest;rotatable=0;whiteSpace=wrap;html=1;" parent="usdk7RZo3pvC-N4byeOp-177" vertex="1">
          <mxGeometry x="30" y="66.26666666666665" width="160" height="25.199999999999996" as="geometry" />
        </mxCell>
        <mxCell id="usdk7RZo3pvC-N4byeOp-183" value="estado char(2) not null" style="text;strokeColor=none;fillColor=none;align=left;verticalAlign=middle;spacingLeft=4;spacingRight=4;overflow=hidden;points=[[0,0.5],[1,0.5]];portConstraint=eastwest;rotatable=0;whiteSpace=wrap;html=1;" parent="usdk7RZo3pvC-N4byeOp-177" vertex="1">
          <mxGeometry x="30" y="91.46666666666667" width="160" height="25.199999999999996" as="geometry" />
        </mxCell>
        <mxCell id="usdk7RZo3pvC-N4byeOp-184" value="constraint estado_check (estado_length(cpf) = 2)" style="text;strokeColor=none;fillColor=none;align=left;verticalAlign=middle;spacingLeft=4;spacingRight=4;overflow=hidden;points=[[0,0.5],[1,0.5]];portConstraint=eastwest;rotatable=0;whiteSpace=wrap;html=1;" parent="usdk7RZo3pvC-N4byeOp-177" vertex="1">
          <mxGeometry x="30" y="116.66666666666669" width="290" height="25.199999999999996" as="geometry" />
        </mxCell>
        <mxCell id="usdk7RZo3pvC-N4byeOp-191" value="" style="endArrow=none;html=1;rounded=0;entryX=0.002;entryY=0.352;entryDx=0;entryDy=0;entryPerimeter=0;strokeColor=light-dark(#000000,#000000);" parent="1" target="usdk7RZo3pvC-N4byeOp-165" edge="1">
          <mxGeometry width="50" height="50" relative="1" as="geometry">
            <mxPoint x="2317.8446742018414" y="1676.2646742018414" as="sourcePoint" />
            <mxPoint x="2266.5599999999995" y="1673.2200000000003" as="targetPoint" />
          </mxGeometry>
        </mxCell>
        <mxCell id="usdk7RZo3pvC-N4byeOp-164" value="endereco" style="swimlane;fontStyle=0;childLayout=stackLayout;horizontal=1;startSize=30;horizontalStack=0;resizeParent=1;resizeParentMax=0;resizeLast=0;collapsible=1;marginBottom=0;whiteSpace=wrap;html=1;" parent="1" vertex="1">
          <mxGeometry x="1838" y="1855" width="350" height="60" as="geometry" />
        </mxCell>
        <mxCell id="usdk7RZo3pvC-N4byeOp-165" value="" style="shape=internalStorage;whiteSpace=wrap;html=1;backgroundOutline=1;dx=30;dy=30;" parent="1" vertex="1">
          <mxGeometry x="1838" y="1885" width="349" height="220" as="geometry" />
        </mxCell>
        <mxCell id="usdk7RZo3pvC-N4byeOp-166" value="endreco_id bigserial" style="text;strokeColor=none;fillColor=none;align=left;verticalAlign=middle;spacingLeft=4;spacingRight=4;overflow=hidden;points=[[0,0.5],[1,0.5]];portConstraint=eastwest;rotatable=0;whiteSpace=wrap;html=1;" parent="1" vertex="1">
          <mxGeometry x="1868" y="1885" width="140" height="30" as="geometry" />
        </mxCell>
        <mxCell id="usdk7RZo3pvC-N4byeOp-167" value="PK" style="text;strokeColor=none;fillColor=none;align=left;verticalAlign=middle;spacingLeft=4;spacingRight=4;overflow=hidden;points=[[0,0.5],[1,0.5]];portConstraint=eastwest;rotatable=0;whiteSpace=wrap;html=1;" parent="1" vertex="1">
          <mxGeometry x="1838" y="1885" width="30" height="30" as="geometry" />
        </mxCell>
        <mxCell id="usdk7RZo3pvC-N4byeOp-168" value="FK" style="text;strokeColor=none;fillColor=none;align=left;verticalAlign=middle;spacingLeft=4;spacingRight=4;overflow=hidden;points=[[0,0.5],[1,0.5]];portConstraint=eastwest;rotatable=0;whiteSpace=wrap;html=1;" parent="1" vertex="1">
          <mxGeometry x="1838" y="1915" width="30" height="30" as="geometry" />
        </mxCell>
        <mxCell id="usdk7RZo3pvC-N4byeOp-169" value="cidade_id integer not null references cidade(cidade_id)" style="text;strokeColor=none;fillColor=none;align=left;verticalAlign=middle;spacingLeft=4;spacingRight=4;overflow=hidden;points=[[0,0.5],[1,0.5]];portConstraint=eastwest;rotatable=0;whiteSpace=wrap;html=1;" parent="1" vertex="1">
          <mxGeometry x="1868" y="1915" width="320" height="30" as="geometry" />
        </mxCell>
        <mxCell id="usdk7RZo3pvC-N4byeOp-170" value="numero varchar(10) not null" style="text;strokeColor=none;fillColor=none;align=left;verticalAlign=middle;spacingLeft=4;spacingRight=4;overflow=hidden;points=[[0,0.5],[1,0.5]];portConstraint=eastwest;rotatable=0;whiteSpace=wrap;html=1;" parent="1" vertex="1">
          <mxGeometry x="1868" y="1945" width="320" height="30" as="geometry" />
        </mxCell>
        <mxCell id="usdk7RZo3pvC-N4byeOp-171" value="bairro varchar(100) not null" style="text;strokeColor=none;fillColor=none;align=left;verticalAlign=middle;spacingLeft=4;spacingRight=4;overflow=hidden;points=[[0,0.5],[1,0.5]];portConstraint=eastwest;rotatable=0;whiteSpace=wrap;html=1;" parent="1" vertex="1">
          <mxGeometry x="1868" y="2005" width="320" height="30" as="geometry" />
        </mxCell>
        <mxCell id="usdk7RZo3pvC-N4byeOp-172" value="complemento varchar(100)" style="text;strokeColor=none;fillColor=none;align=left;verticalAlign=middle;spacingLeft=4;spacingRight=4;overflow=hidden;points=[[0,0.5],[1,0.5]];portConstraint=eastwest;rotatable=0;whiteSpace=wrap;html=1;" parent="1" vertex="1">
          <mxGeometry x="1868" y="1975" width="320" height="30" as="geometry" />
        </mxCell>
        <mxCell id="usdk7RZo3pvC-N4byeOp-173" value="cep varchar(100) not null" style="text;strokeColor=none;fillColor=none;align=left;verticalAlign=middle;spacingLeft=4;spacingRight=4;overflow=hidden;points=[[0,0.5],[1,0.5]];portConstraint=eastwest;rotatable=0;whiteSpace=wrap;html=1;" parent="1" vertex="1">
          <mxGeometry x="1868" y="2035" width="320" height="30" as="geometry" />
        </mxCell>
        <mxCell id="usdk7RZo3pvC-N4byeOp-174" value="constraint cep_tamanho check (char_lenght(cep) = 8)" style="text;strokeColor=none;fillColor=none;align=left;verticalAlign=middle;spacingLeft=4;spacingRight=4;overflow=hidden;points=[[0,0.5],[1,0.5]];portConstraint=eastwest;rotatable=0;whiteSpace=wrap;html=1;" parent="1" vertex="1">
          <mxGeometry x="1868" y="2065" width="320" height="30" as="geometry" />
        </mxCell>
        <mxCell id="iFDkUa1jW61s_XEvgg0U-4" style="edgeStyle=orthogonalEdgeStyle;rounded=0;orthogonalLoop=1;jettySize=auto;html=1;exitX=1;exitY=0.5;exitDx=0;exitDy=0;" edge="1" parent="1">
          <mxGeometry relative="1" as="geometry">
            <mxPoint x="2216.998604651163" y="1826" as="sourcePoint" />
            <mxPoint x="2216.998604651163" y="1826" as="targetPoint" />
          </mxGeometry>
        </mxCell>
        <mxCell id="iFDkUa1jW61s_XEvgg0U-46" value="" style="group" connectable="0" vertex="1" parent="1">
          <mxGeometry x="5180" y="2488" width="520" height="250" as="geometry" />
        </mxCell>
        <mxCell id="iFDkUa1jW61s_XEvgg0U-47" value="pacote_atividade" style="swimlane;fontStyle=0;childLayout=stackLayout;horizontal=1;startSize=30;horizontalStack=0;resizeParent=1;resizeParentMax=0;resizeLast=0;collapsible=1;marginBottom=0;whiteSpace=wrap;html=1;" vertex="1" parent="iFDkUa1jW61s_XEvgg0U-46">
          <mxGeometry y="-10" width="440" height="36" as="geometry">
            <mxRectangle width="80" height="30" as="alternateBounds" />
          </mxGeometry>
        </mxCell>
        <mxCell id="iFDkUa1jW61s_XEvgg0U-48" value="" style="shape=internalStorage;whiteSpace=wrap;html=1;backgroundOutline=1;dx=30;dy=22;" vertex="1" parent="iFDkUa1jW61s_XEvgg0U-46">
          <mxGeometry y="18" width="440" height="100" as="geometry" />
        </mxCell>
        <mxCell id="iFDkUa1jW61s_XEvgg0U-49" value="pacote_id integer not null references pacote(pacote_id)" style="text;strokeColor=none;fillColor=none;align=left;verticalAlign=middle;spacingLeft=4;spacingRight=4;overflow=hidden;points=[[0,0.5],[1,0.5]];portConstraint=eastwest;rotatable=0;whiteSpace=wrap;html=1;" vertex="1" parent="iFDkUa1jW61s_XEvgg0U-46">
          <mxGeometry x="30" y="18" width="340" height="18" as="geometry" />
        </mxCell>
        <mxCell id="iFDkUa1jW61s_XEvgg0U-50" value="FK" style="text;strokeColor=none;fillColor=none;align=left;verticalAlign=middle;spacingLeft=4;spacingRight=4;overflow=hidden;points=[[0,0.5],[1,0.5]];portConstraint=eastwest;rotatable=0;whiteSpace=wrap;html=1;" vertex="1" parent="iFDkUa1jW61s_XEvgg0U-46">
          <mxGeometry y="18" width="30" height="18" as="geometry" />
        </mxCell>
        <mxCell id="iFDkUa1jW61s_XEvgg0U-51" value="primary key (pacote_id, pacote_id)" style="text;strokeColor=none;fillColor=none;align=left;verticalAlign=middle;spacingLeft=4;spacingRight=4;overflow=hidden;points=[[0,0.5],[1,0.5]];portConstraint=eastwest;rotatable=0;whiteSpace=wrap;html=1;" vertex="1" parent="iFDkUa1jW61s_XEvgg0U-46">
          <mxGeometry x="30" y="75" width="370" height="18" as="geometry" />
        </mxCell>
        <mxCell id="iFDkUa1jW61s_XEvgg0U-52" value="atividade_id integer not null references atividade(atividade_id)" style="text;strokeColor=none;fillColor=none;align=left;verticalAlign=middle;spacingLeft=4;spacingRight=4;overflow=hidden;points=[[0,0.5],[1,0.5]];portConstraint=eastwest;rotatable=0;whiteSpace=wrap;html=1;" vertex="1" parent="iFDkUa1jW61s_XEvgg0U-46">
          <mxGeometry x="30" y="48" width="410" height="18" as="geometry" />
        </mxCell>
        <mxCell id="iFDkUa1jW61s_XEvgg0U-53" value="FK" style="text;strokeColor=none;fillColor=none;align=left;verticalAlign=middle;spacingLeft=4;spacingRight=4;overflow=hidden;points=[[0,0.5],[1,0.5]];portConstraint=eastwest;rotatable=0;whiteSpace=wrap;html=1;" vertex="1" parent="iFDkUa1jW61s_XEvgg0U-46">
          <mxGeometry y="48" width="30" height="18" as="geometry" />
        </mxCell>
      </root>
    </mxGraphModel>
  </diagram>
</mxfile>
